<?xml version="1.0" encoding="UTF-8" standalone="no"?>
<svg
   xmlns:dc="http://purl.org/dc/elements/1.1/"
   xmlns:cc="http://creativecommons.org/ns#"
   xmlns:rdf="http://www.w3.org/1999/02/22-rdf-syntax-ns#"
   xmlns:svg="http://www.w3.org/2000/svg"
   xmlns="http://www.w3.org/2000/svg"
   xmlns:xlink="http://www.w3.org/1999/xlink"
   xmlns:sodipodi="http://sodipodi.sourceforge.net/DTD/sodipodi-0.dtd"
   xmlns:inkscape="http://www.inkscape.org/namespaces/inkscape"
   id="31b2376c-d9cb-459c-a08c-900021ef8e68"
   data-name="Layer 1"
   width="887.59"
   height="776.14"
   viewBox="0 0 887.59 776.14"
   version="1.1"
   sodipodi:docname="undraw_map_light_6ttm_smaller.svg"
   inkscape:version="0.92.4 (5da689c313, 2019-01-14)">
  <metadata
     id="metadata96">
    <rdf:RDF>
      <cc:Work
         rdf:about="">
        <dc:format>image/svg+xml</dc:format>
        <dc:type
           rdf:resource="http://purl.org/dc/dcmitype/StillImage" />
        <dc:title>map light</dc:title>
      </cc:Work>
    </rdf:RDF>
  </metadata>
  <sodipodi:namedview
     pagecolor="#ffffff"
     bordercolor="#666666"
     borderopacity="1"
     objecttolerance="10"
     gridtolerance="10"
     guidetolerance="10"
     inkscape:pageopacity="0"
     inkscape:pageshadow="2"
     inkscape:window-width="2880"
     inkscape:window-height="1586"
     id="namedview94"
     showgrid="false"
     inkscape:zoom="0.30406885"
     inkscape:cx="-148.17618"
     inkscape:cy="388.07001"
     inkscape:window-x="-11"
     inkscape:window-y="-11"
     inkscape:window-maximized="1"
     inkscape:current-layer="31b2376c-d9cb-459c-a08c-900021ef8e68" />
  <defs
     id="defs33">
    <linearGradient
       id="2d643a01-90c6-4282-8c89-060a579808b4"
       x1="148.91"
       y1="776.14"
       x2="148.91"
       y2="47.08"
       gradientUnits="userSpaceOnUse">
      <stop
         offset="0"
         stop-color="gray"
         stop-opacity="0.25"
         id="stop2" />
      <stop
         offset="0.54"
         stop-color="gray"
         stop-opacity="0.12"
         id="stop4" />
      <stop
         offset="1"
         stop-color="gray"
         stop-opacity="0.1"
         id="stop6" />
    </linearGradient>
    <linearGradient
       id="a3e0f5af-5f14-4b24-ae95-6e04dd729135"
       x1="446.72"
       y1="776.14"
       x2="446.72"
       y2="47.08"
       xlink:href="#2d643a01-90c6-4282-8c89-060a579808b4" />
    <linearGradient
       id="aa8d7746-6edb-4ff6-8601-5cedae83b174"
       x1="741.61"
       y1="776.14"
       x2="741.61"
       y2="47.08"
       xlink:href="#2d643a01-90c6-4282-8c89-060a579808b4" />
    <linearGradient
       id="08fa861d-a5a6-45c5-828b-48370c6dd4d7"
       x1="889.9"
       y1="282.66"
       x2="889.9"
       y2="61.93"
       gradientUnits="userSpaceOnUse">
      <stop
         offset="0"
         stop-color="#b3b3b3"
         stop-opacity="0.25"
         id="stop11" />
      <stop
         offset="0.54"
         stop-color="#b3b3b3"
         stop-opacity="0.1"
         id="stop13" />
      <stop
         offset="1"
         stop-color="#b3b3b3"
         stop-opacity="0.05"
         id="stop15" />
    </linearGradient>
    <linearGradient
       id="c138b5e9-aced-4e12-8d58-cfc81734ef31"
       x1="733.7"
       y1="87.3"
       x2="733.7"
       y2="44.48"
       gradientUnits="userSpaceOnUse"
       gradientTransform="matrix(0.5689564,0,0,0.65065581,194.035,106.70356)">
      <stop
         offset="0"
         stop-opacity="0.12"
         id="stop18" />
      <stop
         offset="0.55"
         stop-opacity="0.09"
         id="stop20" />
      <stop
         offset="1"
         stop-opacity="0.02"
         id="stop22" />
    </linearGradient>
    <linearGradient
       id="77e2ede8-9f9a-47ed-a740-ad5fa329fb2d"
       x1="311.15"
       y1="727"
       x2="311.15"
       y2="504.71"
       xlink:href="#08fa861d-a5a6-45c5-828b-48370c6dd4d7"
       gradientTransform="matrix(0.5689564,0,0,0.65065581,105.16402,66.408447)" />
    <linearGradient
       id="ae6f7cb0-09a9-4206-a53c-57ed9ab3e9f7"
       x1="154.94"
       y1="530.7"
       x2="154.94"
       y2="487.57"
       gradientUnits="userSpaceOnUse"
       gradientTransform="matrix(0.5689564,0,0,0.65065581,194.035,106.70356)">
      <stop
         offset="0.01"
         stop-opacity="0.12"
         id="stop26" />
      <stop
         offset="0.55"
         stop-opacity="0.09"
         id="stop28" />
      <stop
         offset="1"
         stop-opacity="0.05"
         id="stop30" />
    </linearGradient>
    <linearGradient
       inkscape:collect="always"
       xlink:href="#08fa861d-a5a6-45c5-828b-48370c6dd4d7"
       id="linearGradient98"
       gradientUnits="userSpaceOnUse"
       x1="889.9"
       y1="282.66"
       x2="889.9"
       y2="61.93"
       gradientTransform="matrix(0.5689564,0,0,0.65065581,105.16402,66.408447)" />
    <linearGradient
       inkscape:collect="always"
       xlink:href="#2d643a01-90c6-4282-8c89-060a579808b4"
       id="linearGradient100"
       gradientUnits="userSpaceOnUse"
       x1="148.91"
       y1="776.14"
       x2="148.91"
       y2="47.08" />
  </defs>
  <title
     id="title35">map light</title>
  <polygon
     points="0,776.14 0,75.06 297.81,47.08 297.81,748.17 "
     id="polygon37"
     style="fill:url(#linearGradient100)"
     transform="matrix(0.56895639,0,0,0.65065581,194.035,106.70356)" />
  <polygon
     points="595.62,776.14 595.62,75.06 297.81,47.08 297.81,748.17 "
     id="polygon39"
     style="fill:url(#a3e0f5af-5f14-4b24-ae95-6e04dd729135)"
     transform="matrix(0.56895639,0,0,0.65065581,194.035,106.70356)" />
  <polygon
     points="595.62,776.14 595.62,75.06 887.59,47.08 887.59,748.17 "
     id="polygon41"
     style="fill:url(#aa8d7746-6edb-4ff6-8601-5cedae83b174)"
     transform="matrix(0.56895639,0,0,0.65065581,194.035,106.70356)" />
  <polygon
     points="9.49,755.59 9.49,81.95 298.87,55.07 298.87,728.7 "
     id="polygon43"
     transform="matrix(0.56895639,0,0,0.65065581,194.035,106.70356)"
     style="fill:#f5f5f5" />
  <polygon
     points="588.24,755.59 588.24,81.95 298.87,55.07 298.87,728.7 "
     id="polygon45"
     transform="matrix(0.56895639,0,0,0.65065581,194.035,106.70356)"
     style="fill:#ffffff" />
  <polygon
     points="588.24,755.59 588.24,81.95 877.62,55.07 877.62,728.7 "
     id="polygon47"
     transform="matrix(0.56895639,0,0,0.65065581,194.035,106.70356)"
     style="fill:#f5f5f5" />
  <polygon
     points="265.66,225.85 265.66,189.26 298.87,188.1 349.47,203.72 349.47,132.56 298.87,116.94 79.06,124.65 79.06,154.69 79.06,195.81 79.06,225.85 "
     id="polygon49"
     transform="matrix(0.56895639,0,0,0.65065581,194.035,106.70356)"
     style="opacity:0.3;fill:#6c63ff" />
  <polygon
     points="52.18,706.57 52.18,616.43 298.87,592.71 298.87,682.85 "
     id="polygon51"
     transform="matrix(0.56895639,0,0,0.65065581,194.035,106.70356)"
     style="opacity:0.3;fill:#6c63ff" />
  <rect
     x="446.84509"
     y="505.73129"
     width="61.179878"
     height="53.503429"
     id="rect53"
     style="opacity:0.3;fill:#6c63ff;stroke-width:0.60843629" />
  <polygon
     points="668.89,671.78 668.89,562.67 836.5,548.44 836.5,657.55 "
     id="polygon55"
     transform="matrix(0.56895639,0,0,0.65065581,194.035,106.70356)"
     style="opacity:0.3;fill:#6c63ff" />
  <path
     d="m 650.38353,152.78951 c 0,25.45366 -38.90523,97.53331 -38.90523,97.53331 0,0 -38.90524,-72.07965 -38.90524,-97.53331 0,-25.45365 17.42144,-46.08595 38.90524,-46.08595 21.48379,0 38.90523,20.6323 38.90523,46.08595 z"
     id="path57"
     style="fill:url(#linearGradient98);stroke-width:0.60843629"
     inkscape:connector-curvature="0" />
  <ellipse
     cx="611.47827"
     cy="149.57527"
     rx="11.760329"
     ry="13.930541"
     id="ellipse59"
     style="fill:url(#c138b5e9-aced-4e12-8d58-cfc81734ef31);stroke-width:0.60843629" />
  <path
     d="m 647.48185,152.8741 c 0,22.74042 -36.00355,87.12932 -36.00355,87.12932 0,0 -36.00356,-64.41493 -36.00356,-87.12932 a 36.003559,41.1735 0 1 1 72.00143,0 z"
     id="path61"
     inkscape:connector-curvature="0"
     style="fill:#6c63ff;stroke-width:0.60843629" />
  <ellipse
     cx="611.47827"
     cy="149.99818"
     id="circle63"
     rx="10.884135"
     ry="12.447045"
     style="fill:#ffffff;stroke-width:0.60843629" />
  <path
     d="m 322.25501,441.18619 c 0,25.63584 -40.06021,98.24903 -40.06021,98.24903 0,0 -40.06022,-72.58716 -40.06022,-98.24903 0,-25.66186 17.9335,-46.41128 40.06022,-46.41128 22.12671,0 40.06021,20.80798 40.06021,46.41128 z"
     id="path65"
     style="fill:url(#77e2ede8-9f9a-47ed-a740-ad5fa329fb2d);stroke-width:0.60843629"
     inkscape:connector-curvature="0" />
  <ellipse
     cx="282.18912"
     cy="437.97849"
     rx="12.113082"
     ry="14.034646"
     id="ellipse67"
     style="fill:url(#ae6f7cb0-09a9-4206-a53c-57ed9ab3e9f7);stroke-width:0.60843629" />
  <path
     d="m 318.19266,440.95846 c 0,22.74042 -36.00356,87.12932 -36.00356,87.12932 0,0 -36.00355,-64.41492 -36.00355,-87.12932 a 36.003559,41.1735 0 0 1 72.00142,0 z"
     id="path69"
     inkscape:connector-curvature="0"
     style="fill:#6c63ff;stroke-width:0.60843629" />
  <ellipse
     cx="282.18912"
     cy="438.08908"
     id="circle71"
     rx="10.884135"
     ry="12.447045"
     style="fill:#ffffff;stroke-width:0.60843629" />
  <g
     id="g91"
     transform="matrix(0.56895639,0,0,0.65065581,194.035,106.70356)"
     style="opacity:0.4">
    <line
       x1="175.52"
       y1="649.64001"
       x2="180.17"
       y2="645.84998"
       stroke-miterlimit="10"
       id="line73"
       style="fill:none;stroke:#64ffda;stroke-width:11;stroke-miterlimit:10" />
    <line
       x1="188.95"
       y1="638.69"
       x2="289.82999"
       y2="556.40997"
       stroke-miterlimit="10"
       id="line75"
       style="fill:none;stroke:#64ffda;stroke-width:11;stroke-miterlimit:10;stroke-dasharray:11.32, 11.32" />
    <polyline
       points="294.21 552.83 298.87 549.04 304.73 550.29"
       stroke-miterlimit="10"
       id="polyline77"
       style="fill:none;stroke:#64ffda;stroke-width:11;stroke-miterlimit:10" />
    <line
       x1="316.89001"
       y1="552.88"
       x2="432.39999"
       y2="577.51001"
       stroke-miterlimit="10"
       id="line79"
       style="fill:none;stroke:#64ffda;stroke-width:11;stroke-miterlimit:10;stroke-dasharray:12.43, 12.43" />
    <polyline
       points="438.48 578.81 444.34 580.06 446.01 574.3"
       stroke-miterlimit="10"
       id="polyline81"
       style="fill:none;stroke:#64ffda;stroke-width:11;stroke-miterlimit:10" />
    <line
       x1="449.39999"
       y1="562.60999"
       x2="562.73999"
       y2="171.05"
       stroke-miterlimit="10"
       id="line83"
       style="fill:none;stroke:#64ffda;stroke-width:11;stroke-miterlimit:10;stroke-dasharray:12.17, 12.17" />
    <polyline
       points="564.43 165.2 566.1 159.44 571.58 161.89"
       stroke-miterlimit="10"
       id="polyline85"
       style="fill:none;stroke:#64ffda;stroke-width:11;stroke-miterlimit:10" />
    <line
       x1="582.16998"
       y1="166.62"
       x2="703.96997"
       y2="221.03999"
       stroke-miterlimit="10"
       id="line87"
       style="fill:none;stroke:#64ffda;stroke-width:11;stroke-miterlimit:10;stroke-dasharray:11.6, 11.6" />
    <line
       x1="709.27002"
       y1="223.41"
       x2="714.75"
       y2="225.85001"
       stroke-miterlimit="10"
       id="line89"
       style="fill:none;stroke:#64ffda;stroke-width:11;stroke-miterlimit:10" />
  </g>
</svg>
