<?xml version="1.0" encoding="UTF-8" standalone="no"?>
<svg
   xmlns:dc="http://purl.org/dc/elements/1.1/"
   xmlns:cc="http://creativecommons.org/ns#"
   xmlns:rdf="http://www.w3.org/1999/02/22-rdf-syntax-ns#"
   xmlns:svg="http://www.w3.org/2000/svg"
   xmlns="http://www.w3.org/2000/svg"
   xmlns:xlink="http://www.w3.org/1999/xlink"
   version="1.1"
   viewBox="0 0 887.59 776.14"
   height="776.14"
   width="887.59"
   data-name="Layer 1"
   id="31b2376c-d9cb-459c-a08c-900021ef8e68">
  <metadata
     id="metadata96">
    <rdf:RDF>
      <cc:Work
         rdf:about="">
        <dc:format>image/svg+xml</dc:format>
        <dc:type
           rdf:resource="http://purl.org/dc/dcmitype/StillImage" />
        <dc:title>map light</dc:title>
      </cc:Work>
    </rdf:RDF>
  </metadata>
  <defs
     id="defs33">
    <linearGradient
       gradientUnits="userSpaceOnUse"
       y2="47.08"
       x2="148.91"
       y1="776.14"
       x1="148.91"
       id="2d643a01-90c6-4282-8c89-060a579808b4">
      <stop
         id="stop2"
         stop-opacity="0.25"
         stop-color="gray"
         offset="0" />
      <stop
         id="stop4"
         stop-opacity="0.12"
         stop-color="gray"
         offset="0.54" />
      <stop
         id="stop6"
         stop-opacity="0.1"
         stop-color="gray"
         offset="1" />
    </linearGradient>
    <linearGradient
       xlink:href="#2d643a01-90c6-4282-8c89-060a579808b4"
       y2="47.08"
       x2="446.72"
       y1="776.14"
       x1="446.72"
       id="a3e0f5af-5f14-4b24-ae95-6e04dd729135" />
    <linearGradient
       xlink:href="#2d643a01-90c6-4282-8c89-060a579808b4"
       y2="47.08"
       x2="741.61"
       y1="776.14"
       x1="741.61"
       id="aa8d7746-6edb-4ff6-8601-5cedae83b174" />
    <linearGradient
       gradientUnits="userSpaceOnUse"
       y2="61.93"
       x2="889.9"
       y1="282.66"
       x1="889.9"
       id="08fa861d-a5a6-45c5-828b-48370c6dd4d7">
      <stop
         id="stop11"
         stop-opacity="0.25"
         stop-color="#b3b3b3"
         offset="0" />
      <stop
         id="stop13"
         stop-opacity="0.1"
         stop-color="#b3b3b3"
         offset="0.54" />
      <stop
         id="stop15"
         stop-opacity="0.05"
         stop-color="#b3b3b3"
         offset="1" />
    </linearGradient>
    <linearGradient
       gradientTransform="matrix(0.5689564,0,0,0.65065581,194.035,106.70356)"
       gradientUnits="userSpaceOnUse"
       y2="44.48"
       x2="733.7"
       y1="87.3"
       x1="733.7"
       id="c138b5e9-aced-4e12-8d58-cfc81734ef31">
      <stop
         id="stop18"
         stop-opacity="0.12"
         offset="0" />
      <stop
         id="stop20"
         stop-opacity="0.09"
         offset="0.55" />
      <stop
         id="stop22"
         stop-opacity="0.02"
         offset="1" />
    </linearGradient>
    <linearGradient
       gradientTransform="matrix(0.5689564,0,0,0.65065581,105.16402,66.408447)"
       xlink:href="#08fa861d-a5a6-45c5-828b-48370c6dd4d7"
       y2="504.71"
       x2="311.15"
       y1="727"
       x1="311.15"
       id="77e2ede8-9f9a-47ed-a740-ad5fa329fb2d" />
    <linearGradient
       gradientTransform="matrix(0.5689564,0,0,0.65065581,194.035,106.70356)"
       gradientUnits="userSpaceOnUse"
       y2="487.57"
       x2="154.94"
       y1="530.7"
       x1="154.94"
       id="ae6f7cb0-09a9-4206-a53c-57ed9ab3e9f7">
      <stop
         id="stop26"
         stop-opacity="0.12"
         offset="0.01" />
      <stop
         id="stop28"
         stop-opacity="0.09"
         offset="0.55" />
      <stop
         id="stop30"
         stop-opacity="0.05"
         offset="1" />
    </linearGradient>
    <linearGradient
       gradientTransform="matrix(0.5689564,0,0,0.65065581,105.16402,66.408447)"
       y2="61.93"
       x2="889.9"
       y1="282.66"
       x1="889.9"
       gradientUnits="userSpaceOnUse"
       id="linearGradient98"
       xlink:href="#08fa861d-a5a6-45c5-828b-48370c6dd4d7" />
    <linearGradient
       y2="47.08"
       x2="148.91"
       y1="776.14"
       x1="148.91"
       gradientUnits="userSpaceOnUse"
       id="linearGradient100"
       xlink:href="#2d643a01-90c6-4282-8c89-060a579808b4" />
  </defs>
  <title
     id="title35">map light</title>
  <polygon
     transform="matrix(0.56895639,0,0,0.65065581,194.035,106.70356)"
     style="fill:url(#linearGradient100)"
     id="polygon37"
     points="0,776.14 0,75.06 297.81,47.08 297.81,748.17 " />
  <polygon
     transform="matrix(0.56895639,0,0,0.65065581,194.035,106.70356)"
     style="fill:url(#a3e0f5af-5f14-4b24-ae95-6e04dd729135)"
     id="polygon39"
     points="595.62,776.14 595.62,75.06 297.81,47.08 297.81,748.17 " />
  <polygon
     transform="matrix(0.56895639,0,0,0.65065581,194.035,106.70356)"
     style="fill:url(#aa8d7746-6edb-4ff6-8601-5cedae83b174)"
     id="polygon41"
     points="595.62,776.14 595.62,75.06 887.59,47.08 887.59,748.17 " />
  <polygon
     style="fill:#f5f5f5"
     transform="matrix(0.56895639,0,0,0.65065581,194.035,106.70356)"
     id="polygon43"
     points="9.49,755.59 9.49,81.95 298.87,55.07 298.87,728.7 " />
  <polygon
     style="fill:#ffffff"
     transform="matrix(0.56895639,0,0,0.65065581,194.035,106.70356)"
     id="polygon45"
     points="588.24,755.59 588.24,81.95 298.87,55.07 298.87,728.7 " />
  <polygon
     style="fill:#f5f5f5"
     transform="matrix(0.56895639,0,0,0.65065581,194.035,106.70356)"
     id="polygon47"
     points="588.24,755.59 588.24,81.95 877.62,55.07 877.62,728.7 " />
  <polygon
     style="opacity:0.3;fill:#6c63ff"
     transform="matrix(0.56895639,0,0,0.65065581,194.035,106.70356)"
     id="polygon49"
     points="265.66,225.85 265.66,189.26 298.87,188.1 349.47,203.72 349.47,132.56 298.87,116.94 79.06,124.65 79.06,154.69 79.06,195.81 79.06,225.85 " />
  <polygon
     style="opacity:0.3;fill:#6c63ff"
     transform="matrix(0.56895639,0,0,0.65065581,194.035,106.70356)"
     id="polygon51"
     points="52.18,706.57 52.18,616.43 298.87,592.71 298.87,682.85 " />
  <rect
     style="opacity:0.3;fill:#6c63ff;stroke-width:0.60843629"
     id="rect53"
     height="53.503429"
     width="61.179878"
     y="505.73129"
     x="446.84509" />
  <polygon
     style="opacity:0.3;fill:#6c63ff"
     transform="matrix(0.56895639,0,0,0.65065581,194.035,106.70356)"
     id="polygon55"
     points="668.89,671.78 668.89,562.67 836.5,548.44 836.5,657.55 " />
  <path
     style="fill:url(#linearGradient98);stroke-width:0.60843629"
     id="path57"
     d="m 650.38353,152.78951 c 0,25.45366 -38.90523,97.53331 -38.90523,97.53331 0,0 -38.90524,-72.07965 -38.90524,-97.53331 0,-25.45365 17.42144,-46.08595 38.90524,-46.08595 21.48379,0 38.90523,20.6323 38.90523,46.08595 z" />
  <ellipse
     style="fill:url(#c138b5e9-aced-4e12-8d58-cfc81734ef31);stroke-width:0.60843629"
     id="ellipse59"
     ry="13.930541"
     rx="11.760329"
     cy="149.57527"
     cx="611.47827" />
  <path
     style="fill:#6c63ff;stroke-width:0.60843629"
     id="path61"
     d="m 647.48185,152.8741 c 0,22.74042 -36.00355,87.12932 -36.00355,87.12932 0,0 -36.00356,-64.41493 -36.00356,-87.12932 a 36.003559,41.1735 0 1 1 72.00143,0 z" />
  <ellipse
     style="fill:#ffffff;stroke-width:0.60843629"
     ry="12.447045"
     rx="10.884135"
     id="circle63"
     cy="149.99818"
     cx="611.47827" />
  <path
     style="fill:url(#77e2ede8-9f9a-47ed-a740-ad5fa329fb2d);stroke-width:0.60843629"
     id="path65"
     d="m 322.25501,441.18619 c 0,25.63584 -40.06021,98.24903 -40.06021,98.24903 0,0 -40.06022,-72.58716 -40.06022,-98.24903 0,-25.66186 17.9335,-46.41128 40.06022,-46.41128 22.12671,0 40.06021,20.80798 40.06021,46.41128 z" />
  <ellipse
     style="fill:url(#ae6f7cb0-09a9-4206-a53c-57ed9ab3e9f7);stroke-width:0.60843629"
     id="ellipse67"
     ry="14.034646"
     rx="12.113082"
     cy="437.97849"
     cx="282.18912" />
  <path
     style="fill:#6c63ff;stroke-width:0.60843629"
     id="path69"
     d="m 318.19266,440.95846 c 0,22.74042 -36.00356,87.12932 -36.00356,87.12932 0,0 -36.00355,-64.41492 -36.00355,-87.12932 a 36.003559,41.1735 0 0 1 72.00142,0 z" />
  <ellipse
     style="fill:#ffffff;stroke-width:0.60843629"
     ry="12.447045"
     rx="10.884135"
     id="circle71"
     cy="438.08908"
     cx="282.18912" />
  <g
     style="opacity:0.4"
     transform="matrix(0.56895639,0,0,0.65065581,194.035,106.70356)"
     id="g91">
    <line
       style="fill:none;stroke:#64ffda;stroke-width:11;stroke-miterlimit:10"
       id="line73"
       stroke-miterlimit="10"
       y2="645.84998"
       x2="180.17"
       y1="649.64001"
       x1="175.52" />
    <line
       style="fill:none;stroke:#64ffda;stroke-width:11;stroke-miterlimit:10;stroke-dasharray:11.32, 11.32"
       id="line75"
       stroke-miterlimit="10"
       y2="556.40997"
       x2="289.82999"
       y1="638.69"
       x1="188.95" />
    <polyline
       style="fill:none;stroke:#64ffda;stroke-width:11;stroke-miterlimit:10"
       id="polyline77"
       stroke-miterlimit="10"
       points="294.21 552.83 298.87 549.04 304.73 550.29" />
    <line
       style="fill:none;stroke:#64ffda;stroke-width:11;stroke-miterlimit:10;stroke-dasharray:12.43, 12.43"
       id="line79"
       stroke-miterlimit="10"
       y2="577.51001"
       x2="432.39999"
       y1="552.88"
       x1="316.89001" />
    <polyline
       style="fill:none;stroke:#64ffda;stroke-width:11;stroke-miterlimit:10"
       id="polyline81"
       stroke-miterlimit="10"
       points="438.48 578.81 444.34 580.06 446.01 574.3" />
    <line
       style="fill:none;stroke:#64ffda;stroke-width:11;stroke-miterlimit:10;stroke-dasharray:12.17, 12.17"
       id="line83"
       stroke-miterlimit="10"
       y2="171.05"
       x2="562.73999"
       y1="562.60999"
       x1="449.39999" />
    <polyline
       style="fill:none;stroke:#64ffda;stroke-width:11;stroke-miterlimit:10"
       id="polyline85"
       stroke-miterlimit="10"
       points="564.43 165.2 566.1 159.44 571.58 161.89" />
    <line
       style="fill:none;stroke:#64ffda;stroke-width:11;stroke-miterlimit:10;stroke-dasharray:11.6, 11.6"
       id="line87"
       stroke-miterlimit="10"
       y2="221.03999"
       x2="703.96997"
       y1="166.62"
       x1="582.16998" />
    <line
       style="fill:none;stroke:#64ffda;stroke-width:11;stroke-miterlimit:10"
       id="line89"
       stroke-miterlimit="10"
       y2="225.85001"
       x2="714.75"
       y1="223.41"
       x1="709.27002" />
  </g>
</svg>
